<?xml version="1.0" encoding="UTF-8"?>
<svg width="22px" height="22px" viewBox="0 0 22 22" version="1.1" xmlns="http://www.w3.org/2000/svg" xmlns:xlink="http://www.w3.org/1999/xlink">
    <title>Sketch-Symbol-Light</title>
    <g id="Page-1" stroke="none" stroke-width="1" fill="none" fill-rule="evenodd">
        <g id="Tablet-Medium" transform="translate(-614.000000, -669.000000)">
            <g id="Sketch-Symbol-Light" transform="translate(625.000000, 680.000000) scale(-1, 1) translate(-625.000000, -680.000000) translate(614.000000, 669.000000)">
                <rect id="Rectangle" x="0" y="0" width="22" height="22"></rect>
                <path d="M11.0518943,1.00289663 L17.0927024,1.67940919 C17.2201991,1.69368766 17.336003,1.75985493 17.412468,1.86211489 L21.9088282,7.87529094 C22.0373135,8.04711968 22.0292465,8.28424028 21.889376,8.44707569 L11.1761038,20.9193238 C11.0931865,21.015855 10.9471244,21.0273946 10.849865,20.9450981 C10.8405344,20.9372031 10.8318508,20.9285845 10.8238962,20.9193238 L0.110624035,8.44707569 C-0.0292465304,8.28424028 -0.0373134393,8.04711968 0.0911717515,7.87529094 L4.587532,1.86211489 C4.66399702,1.75985493 4.77980091,1.69368766 4.90729763,1.67940919 L10.9481056,1.00289663 C10.9825925,0.999034457 11.0174075,0.999034457 11.0518943,1.00289663 Z M12.3059011,2.30021001 C12.2705013,2.26488544 12.2139539,2.26175861 12.1748197,2.29296178 C12.1363958,2.32359857 12.1273343,2.37706689 12.151515,2.41805269 L12.1597703,2.42993863 L15.5663129,6.63859716 C15.5993244,6.67938166 15.6173186,6.73012933 15.6173186,6.7824445 C15.6173186,6.90295219 15.5238122,7.00178389 15.4048828,7.01136574 L15.3859032,7.01212713 L6.6140968,7.01212713 C6.56138695,7.01212713 6.51025643,6.99426766 6.46916427,6.96150336 C6.3750622,6.88647224 6.35566643,6.75335093 6.42123256,6.65548302 L6.4336871,6.63859716 L9.8402297,2.42993863 C9.87166825,2.39109749 9.86851783,2.33497352 9.83292681,2.29983883 C9.7979818,2.26534182 9.7434369,2.26234304 9.70508341,2.29074686 L9.69409892,2.30021001 L5.07922652,6.90527231 C5.04233241,6.94208801 4.99146617,6.96169167 4.93920738,6.95923506 C4.84308382,6.95471644 4.7675633,6.87821236 4.763044,6.78471755 L4.763041,6.76700159 L4.92221883,3.43137232 C4.92434333,3.38685259 4.89396687,3.34724085 4.85016612,3.33741379 C4.80445676,3.32715847 4.75900258,3.35239558 4.74306199,3.39479396 L4.73946829,3.40676886 L3.86505518,7.2460079 C3.83514351,7.37733942 3.73551702,7.48122138 3.60642488,7.51810806 L3.58188466,7.52422951 L1.41684383,7.98718062 C1.37421196,7.99629662 1.34377311,8.03370948 1.34377311,8.07699294 C1.34377311,8.12350473 1.378597,8.16194379 1.42377859,8.16802731 L1.43633927,8.16886603 L3.59603507,8.16886603 C3.7216201,8.16886603 3.83802377,8.23198257 3.90605899,8.33543127 L3.91900952,8.35665205 L9.09987411,17.528969 C9.1354928,17.5920291 9.2141538,17.617052 9.28006989,17.5862911 C9.34483959,17.5560653 9.37512149,17.4825419 9.35234247,17.416874 L9.34664233,17.4029412 L5.15827194,8.56176115 C5.14089086,8.52507155 5.13187908,8.48502798 5.13187908,8.44448523 C5.13187908,8.29888324 5.24563263,8.17965084 5.38974551,8.16955806 L5.40957757,8.16886603 L16.5904224,8.16886603 C16.6312711,8.16886603 16.6716167,8.17781034 16.7085831,8.19506128 C16.8413409,8.25701494 16.9016531,8.40991971 16.8495356,8.54365382 L16.841728,8.56176115 L12.6533577,17.4029412 C12.6223647,17.4683637 12.6475764,17.5464358 12.7111122,17.5817877 C12.773543,17.6165249 12.8514223,17.5982409 12.8920169,17.5416716 L12.9001259,17.528969 L18.0809905,8.35665205 C18.1424024,8.24792699 18.2547953,8.17801509 18.3789819,8.16970086 L18.4039649,8.16886603 L20.5636607,8.16886603 C20.6072708,8.16886603 20.6449659,8.1386551 20.6541506,8.09634244 C20.6640204,8.05087393 20.6381344,8.00601764 20.5952571,7.99062609 L20.5831562,7.98718062 L18.4181153,7.52422951 C18.2854972,7.4958718 18.1798292,7.39804707 18.1413604,7.27030123 L18.1349449,7.2460079 L17.2605318,3.40676886 C17.2506305,3.36329611 17.21072,3.333147 17.1658643,3.33525562 C17.1190541,3.33745606 17.082016,3.37379909 17.078031,3.41888 L17.0777812,3.43137232 L17.236959,6.76700159 C17.2394342,6.81886909 17.2196826,6.86935442 17.1825892,6.90597233 C17.1146268,6.97306338 17.0073547,6.97698107 16.9347997,6.91792346 L16.9207735,6.90527231 L12.3059011,2.30021001 Z" id="Symbol" fill="#000000" fill-rule="nonzero"></path>
            </g>
        </g>
    </g>
</svg>