<?xml version="1.0" encoding="UTF-8"?>
<svg width="512px" height="512px" viewBox="0 0 512 512" version="1.1" xmlns="http://www.w3.org/2000/svg" xmlns:xlink="http://www.w3.org/1999/xlink">
    <title>Sketch-Symbol/Sketch-Symbol-Light - Transparent</title>
    <g id="Sketch-Symbol/Sketch-Symbol-Light---Transparent" stroke="none" stroke-width="1" fill="none" fill-rule="evenodd">
        <path d="M257.097142,105.772367 L349.465038,116.190406 C351.414546,116.410289 353.185263,117.42924 354.354463,119.004005 L423.106745,211.604654 C425.071368,214.250752 424.948019,217.90232 422.809307,220.409924 L258.996386,412.477853 C257.728526,413.964397 255.495141,414.142102 254.007981,412.874768 C253.86531,412.753187 253.732533,412.620464 253.610901,412.477853 L89.7979801,220.409924 C87.6592679,217.90232 87.5359196,214.250752 89.500542,211.604654 L158.252824,119.004005 C159.422024,117.42924 161.192741,116.410289 163.142249,116.190406 L255.510145,105.772367 C256.037471,105.712891 256.569816,105.712891 257.097142,105.772367 Z M276.271723,125.750505 C275.730437,125.20652 274.865791,125.158368 274.267404,125.638885 C273.679877,126.11068 273.54132,126.934072 273.911059,127.565238 L274.037288,127.748277 L326.125547,192.560035 C326.630314,193.188101 326.905458,193.969596 326.905458,194.77523 C326.905458,196.631003 325.475684,198.152974 323.657176,198.300531 L323.366965,198.312256 L189.240322,198.312256 C188.434354,198.312256 187.652535,198.037227 187.024209,197.532669 C185.585327,196.377218 185.288753,194.3272 186.291302,192.820071 L186.48174,192.560035 L238.569999,127.748277 C239.050715,127.150138 239.002543,126.28585 238.458333,125.744789 C237.924001,125.213548 237.089974,125.167368 236.503524,125.604776 L236.335564,125.750505 L165.771154,196.666732 C165.207019,197.23368 164.429241,197.535569 163.63017,197.497738 C162.160378,197.428153 161.00562,196.250019 160.936517,194.810234 L160.936471,194.537415 L163.370404,143.169979 C163.402889,142.484392 162.938413,141.874386 162.268671,141.723053 C161.569745,141.565125 160.874721,141.953767 160.630979,142.606686 L160.576029,142.791095 L147.205682,201.913932 C146.748313,203.936388 145.224959,205.536131 143.251056,206.104172 L142.87582,206.19844 L109.770933,213.327713 C109.119064,213.468096 108.653634,214.04424 108.653634,214.710789 C108.653634,215.427053 109.186114,216.019 109.87697,216.112684 L110.069031,216.1256 L143.092189,216.1256 C145.012466,216.1256 146.792354,217.097571 147.832657,218.690642 L148.030679,219.017434 L227.249479,360.267664 C227.794112,361.238766 228.99689,361.624109 230.00479,361.150403 C230.995161,360.684937 231.458191,359.552705 231.109885,358.541444 L231.022726,358.326884 L166.97981,222.176037 C166.714042,221.611031 166.576246,220.994375 166.576246,220.370032 C166.576246,218.127816 168.315612,216.291682 170.519192,216.136257 L170.822437,216.1256 L341.78485,216.1256 C342.409453,216.1256 343.026364,216.263339 343.591604,216.528997 C345.621557,217.48306 346.54377,219.837736 345.74686,221.897191 L345.627477,222.176037 L281.584561,358.326884 C281.110659,359.334366 281.496162,360.536646 282.467666,361.081052 C283.422274,361.615992 284.613098,361.334425 285.233817,360.46328 L285.357808,360.267664 L364.576608,219.017434 C365.515637,217.343109 367.234197,216.266492 369.133092,216.138456 L369.515098,216.1256 L402.538256,216.1256 C403.205082,216.1256 403.781465,215.660363 403.921906,215.008764 C404.072821,214.308566 403.677007,213.617796 403.021386,213.380772 L402.836354,213.327713 L369.731467,206.19844 C367.70365,205.761742 366.087917,204.255278 365.499704,202.28804 L365.401606,201.913932 L352.031259,142.791095 C351.879862,142.121631 351.269604,141.657346 350.583732,141.689818 C349.867974,141.723704 349.301636,142.283373 349.240703,142.977602 L349.236883,143.169979 L351.670816,194.537415 C351.708663,195.336155 351.406649,196.11361 350.839466,196.677512 C349.800277,197.710689 348.160017,197.77102 347.050603,196.861555 L346.836133,196.666732 L276.271723,125.750505 Z" id="Symbol" fill="#000000" fill-rule="nonzero"></path>
    </g>
</svg>